<svg width="50" height="50" viewBox="0 0 50 50" fill="none" xmlns="http://www.w3.org/2000/svg">
  <path
    d="M45.8244 40.0929L38.2768 13.9262C38.8702 13.4681 39.3525 12.8825 39.6878 12.2128C40.0232 11.5431 40.2029 10.8066 40.2137 10.058C40.2245 9.30949 40.0661 8.56813 39.7502 7.88909C39.4343 7.21004 38.9691 6.61079 38.3891 6.13588C37.8092 5.66096 37.1294 5.32261 36.4003 5.14596C35.6713 4.96932 34.9117 4.95893 34.1781 5.11558C33.4444 5.27222 32.7556 5.59187 32.1628 6.05075C31.5701 6.50963 31.0886 7.09594 30.7542 7.76609L9.95622 4.07153C9.80218 3.25147 9.44457 2.48303 8.9161 1.83647C8.38763 1.18991 7.70516 0.685875 6.93109 0.37044C6.15702 0.0550054 5.31606 -0.0617586 4.48509 0.0308252C3.65413 0.123409 2.85969 0.422386 2.1744 0.900418C1.48912 1.37845 0.934865 2.02028 0.56232 2.76723C0.189775 3.51417 0.0108278 4.34239 0.0418414 5.17616C0.072855 6.00993 0.31284 6.82263 0.739851 7.53996C1.16686 8.25729 1.76728 8.85636 2.48619 9.28238V40.7024C1.5937 41.2185 0.883582 41.9982 0.453685 42.9339C0.0237885 43.8696 -0.10473 44.9153 0.0858362 45.9269C0.276403 46.9385 0.776676 47.8663 1.51772 48.5824C2.25877 49.2984 3.20412 49.7675 4.22352 49.9251C4.47654 49.9697 4.73265 49.9948 4.98955 50C5.85998 49.998 6.71472 49.7686 7.46879 49.3348C8.22286 48.9009 8.84998 48.2777 9.28782 47.527H40.695C41.2296 48.4365 42.0402 49.1528 43.0096 49.5724C43.979 49.992 45.057 50.0932 46.0878 49.8613C47.1186 49.6293 48.0488 49.0764 48.7439 48.2823C49.4391 47.4882 49.8632 46.4941 49.9549 45.4436C49.9675 45.2962 50 45.1539 50 45.004C49.9983 43.8249 49.5779 42.6845 48.8134 41.7854C48.049 40.8863 46.99 40.2866 45.8244 40.0929ZM9.43051 42.7408C9.30658 42.4962 9.16256 42.2622 8.99994 42.0413L18.6254 29.7586C19.1923 29.8733 19.7692 29.9319 20.3477 29.9335C21.1528 29.9217 21.9524 29.7982 22.7234 29.5662L25.8325 33.2583C25.304 34.1807 25.0229 35.2235 25.0164 36.2859C25.0164 36.3808 25.0415 36.4683 25.044 36.5607C25.1111 38.1654 25.7967 39.6823 26.9577 40.7947C28.1186 41.9071 29.6653 42.5291 31.2749 42.5309C32.8169 42.53 34.3028 41.9535 35.4404 40.9147L40.2043 43.66C40.1893 43.705 40.1618 43.7475 40.1493 43.7949H9.83355C9.7375 43.4301 9.60238 43.0767 9.43051 42.7408ZM32.524 14.2085C33.5128 14.8803 34.7261 15.1386 35.9036 14.9279L43.2384 40.3402C42.9969 40.4395 42.7634 40.5572 42.54 40.6924L37.338 37.6948C37.424 37.338 37.4785 36.9744 37.5007 36.6082C37.5057 36.5007 37.5333 36.3983 37.5333 36.2859C37.5371 35.1261 37.216 33.9883 36.606 33.001C35.996 32.0137 35.1216 31.2163 34.0814 30.6987C33.0412 30.1812 31.8768 29.9641 30.7195 30.0721C29.5622 30.1801 28.4583 30.6088 27.5323 31.3099L25.1541 28.4871C26.8853 27.3596 28.1589 25.6553 28.7481 23.678C29.3372 21.7007 29.2036 19.5788 28.371 17.6907L32.524 14.2085ZM9.75595 6.62949L30.2284 10.2641C30.266 10.9836 30.4608 11.6861 30.7992 12.3225L26.9741 15.5274C25.6351 13.9313 23.7619 12.8735 21.7013 12.5497C19.6407 12.2259 17.5323 12.6581 15.7665 13.7663L9.75845 6.62949H9.75595ZM5.04462 10.0018C6.22188 9.99794 7.35941 9.57648 8.25393 8.81275L13.8139 15.415C12.936 16.3866 12.2906 17.5443 11.9263 18.801C11.562 20.0576 11.4883 21.3804 11.7107 22.6696C11.9332 23.9588 12.4461 25.1808 13.2106 26.2435C13.9752 27.3061 14.9715 28.1818 16.1245 28.8044L7.00726 40.4376C6.38872 40.1646 5.72094 40.0201 5.04462 40.0129V10.0018Z"
    fill="white" />
</svg>
