<svg width="50" height="50" viewBox="0 0 50 49" fill="#fff"
  xmlns="http://www.w3.org/2000/svg">
  <path
    d="M25 0.994995C38.8075 0.994995 50 12.1875 50 25.995C50 36.32 43.74 45.185 34.8075 48.9975L28.5125 32.6225C29.9918 31.8381 31.166 30.5812 31.8482 29.0521C32.5304 27.523 32.6812 25.8096 32.2768 24.1848C31.8724 22.56 30.9358 21.1173 29.6164 20.0864C28.297 19.0556 26.6706 18.4958 24.9962 18.4964C23.3218 18.497 21.6958 19.0579 20.3771 20.0897C19.0585 21.1215 18.123 22.5649 17.7197 24.19C17.3164 25.8151 17.4685 27.5284 18.1518 29.057C18.835 30.5856 20.0102 31.8416 21.49 32.625L15.195 49C10.6868 47.0761 6.84316 43.87 4.14171 39.7801C1.44027 35.6901 5.03648e-05 30.8966 0 25.995C0 12.1875 11.1925 0.994995 25 0.994995Z"
    fill="#fill" />
</svg>
